<svg xmlns="http://www.w3.org/2000/svg" width="16" height="16" viewBox="0 0 16 16">
  <g id="_001-instagram" data-name="001-instagram" transform="translate(0)" opacity="0.5">
    <g id="Group_95" data-name="Group 95">
      <g id="Group_94" data-name="Group 94">
        <path id="Path_95" data-name="Path 95" d="M11,0H5A5,5,0,0,0,0,5v6a5,5,0,0,0,5,5h6a5,5,0,0,0,5-5V5A5,5,0,0,0,11,0Zm3.5,11A3.5,3.5,0,0,1,11,14.5H5A3.5,3.5,0,0,1,1.5,11V5A3.5,3.5,0,0,1,5,1.5h6A3.5,3.5,0,0,1,14.5,5Z" transform="translate(0 0)" fill="#222"/>
      </g>
    </g>
    <g id="Group_97" data-name="Group 97" transform="translate(3.95 3.95)">
      <g id="Group_96" data-name="Group 96">
        <path id="Path_96" data-name="Path 96" d="M132.05,128a4.05,4.05,0,1,0,4.05,4.05A4.051,4.051,0,0,0,132.05,128Zm0,6.582a2.531,2.531,0,1,1,2.531-2.531A2.535,2.535,0,0,1,132.05,134.582Z" transform="translate(-128 -128)" fill="#222"/>
      </g>
    </g>
    <g id="Group_99" data-name="Group 99" transform="translate(11.756 3.164)">
      <g id="Group_98" data-name="Group 98">
        <ellipse id="Ellipse_7" data-name="Ellipse 7" cx="0.54" cy="0.54" rx="0.54" ry="0.54" fill="#222"/>
      </g>
    </g>
  </g>
</svg>
