<svg xmlns="http://www.w3.org/2000/svg" width="21.588" height="21.588" viewBox="0 0 21.588 21.588">
  <g id="_001-instagram" data-name="001-instagram" transform="translate(0 0)">
    <g id="Group_95" data-name="Group 95">
      <g id="Group_94" data-name="Group 94">
        <path id="Path_95" data-name="Path 95" d="M14.842,0h-8.1A6.747,6.747,0,0,0,0,6.746v8.1a6.747,6.747,0,0,0,6.746,6.746h8.1a6.747,6.747,0,0,0,6.746-6.746v-8.1A6.747,6.747,0,0,0,14.842,0Zm4.722,14.842a4.728,4.728,0,0,1-4.722,4.722h-8.1a4.728,4.728,0,0,1-4.722-4.722v-8.1A4.728,4.728,0,0,1,6.746,2.024h8.1a4.728,4.728,0,0,1,4.722,4.722Z" transform="translate(0 0)" fill="#f8f8f8"/>
      </g>
    </g>
    <g id="Group_97" data-name="Group 97" transform="translate(5.397 5.397)">
      <g id="Group_96" data-name="Group 96">
        <path id="Path_96" data-name="Path 96" d="M133.4,128a5.4,5.4,0,1,0,5.4,5.4A5.4,5.4,0,0,0,133.4,128Zm0,8.77a3.373,3.373,0,1,1,3.373-3.373A3.378,3.378,0,0,1,133.4,136.77Z" transform="translate(-128 -128)" fill="#f8f8f8"/>
      </g>
    </g>
    <g id="Group_99" data-name="Group 99" transform="translate(15.877 4.273)">
      <g id="Group_98" data-name="Group 98">
        <ellipse id="Ellipse_7" data-name="Ellipse 7" cx="0.719" cy="0.719" rx="0.719" ry="0.719" fill="#f8f8f8"/>
      </g>
    </g>
  </g>
</svg>
