<svg xmlns="http://www.w3.org/2000/svg" width="22.736" height="15.986" viewBox="0 0 22.736 15.986">
  <g id="_006-mail" data-name="006-mail" transform="translate(0 0)">
    <g id="Group_103" data-name="Group 103" transform="translate(15.64 1.142)">
      <g id="Group_102" data-name="Group 102">
        <path id="Path_101" data-name="Path 101" d="M359.106,101.721l-6.9,6.851,6.9,6.851a1.975,1.975,0,0,0,.2-.856v-11.99A1.975,1.975,0,0,0,359.106,101.721Z" transform="translate(-352.211 -101.721)" fill="#f8f8f8"/>
      </g>
    </g>
    <g id="Group_105" data-name="Group 105" transform="translate(1.142 0)">
      <g id="Group_104" data-name="Group 104">
        <path id="Path_102" data-name="Path 102" d="M45.317,76H26.577a1.975,1.975,0,0,0-.856.2l8.813,8.769a2,2,0,0,0,2.826,0L46.173,76.2A1.975,1.975,0,0,0,45.317,76Z" transform="translate(-25.721 -76)" fill="#f8f8f8"/>
      </g>
    </g>
    <g id="Group_107" data-name="Group 107" transform="translate(0 1.142)">
      <g id="Group_106" data-name="Group 106">
        <path id="Path_103" data-name="Path 103" d="M.2,101.721a1.975,1.975,0,0,0-.2.856v11.99a1.975,1.975,0,0,0,.2.856l6.9-6.851Z" transform="translate(0 -101.721)" fill="#f8f8f8"/>
      </g>
    </g>
    <g id="Group_109" data-name="Group 109" transform="translate(1.142 8.935)">
      <g id="Group_108" data-name="Group 108">
        <path id="Path_104" data-name="Path 104" d="M39.277,277.211l-.976.976a3.334,3.334,0,0,1-4.71,0l-.976-.976-6.9,6.851a1.976,1.976,0,0,0,.856.2h18.74a1.976,1.976,0,0,0,.856-.2Z" transform="translate(-25.721 -277.211)" fill="#f8f8f8"/>
      </g>
    </g>
  </g>
</svg>
