<svg xmlns="http://www.w3.org/2000/svg" width="21.588" height="21.588" viewBox="0 0 21.588 21.588">
  <g id="_005-telegram" data-name="005-telegram" transform="translate(0 0)">
    <path id="Path_99" data-name="Path 99" d="M88.777,112.075l-7.73,2.577a1.532,1.532,0,0,0,0,2.907l3.138,1.046,1.046,3.139a1.532,1.532,0,0,0,2.906,0l2.577-7.73a1.532,1.532,0,0,0-1.938-1.937Zm-2.092,8.338-1.077-3.231L82.377,116.1l6.462-2.154Zm0,0" transform="translate(-75.502 -105.699)" fill="#f8f8f8"/>
    <path id="Path_100" data-name="Path 100" d="M10.794,0A10.794,10.794,0,1,0,21.588,10.794,10.806,10.806,0,0,0,10.794,0Zm0,19.789a9,9,0,1,1,9-9A9.005,9.005,0,0,1,10.794,19.789Zm0,0" fill="#f8f8f8"/>
  </g>
</svg>
