<svg xmlns="http://www.w3.org/2000/svg" width="17.926" height="18.408" viewBox="0 0 17.926 18.408">
  <g id="_004-viber" data-name="004-viber" transform="translate(0 0)">
    <path id="XMLID_8_" d="M171.756,46.464a5.566,5.566,0,0,0-4.927-5.3c-.055-.006-.114-.016-.177-.027a2.561,2.561,0,0,0-.417-.046.7.7,0,0,0-.751.63.727.727,0,0,0,.109.571,1.078,1.078,0,0,0,.776.334c.077.011.15.021.21.034,2.461.55,3.29,1.414,3.695,3.855.01.06.014.133.019.211.018.292.055.9.707.9h0a1.157,1.157,0,0,0,.173-.014c.608-.092.589-.647.579-.914a1.354,1.354,0,0,1,0-.193A.261.261,0,0,0,171.756,46.464Z" transform="translate(-156.25 -38.739)" fill="#f8f8f8"/>
    <path id="XMLID_9_" d="M161.333,1.469c.073.005.142.01.2.019,4.041.621,5.9,2.536,6.415,6.609a2.388,2.388,0,0,1,.012.243c.005.318.016.98.727.994h.022a.7.7,0,0,0,.527-.2,1.113,1.113,0,0,0,.193-.852c0-.068-.006-.132-.005-.188A8.236,8.236,0,0,0,161.707.011a.289.289,0,0,0-.05,0,.348.348,0,0,1-.049,0c-.042,0-.093,0-.147-.007s-.14-.01-.215-.01a.731.731,0,0,0-.8.752C160.4,1.4,161.032,1.447,161.333,1.469Z" transform="translate(-151.509)" fill="#f8f8f8"/>
    <path id="XMLID_10_" d="M20.463,28.47c-.086-.066-.175-.134-.258-.2-.441-.355-.911-.682-1.365-1l-.282-.2a2.817,2.817,0,0,0-1.6-.607,2.071,2.071,0,0,0-1.724,1.092.916.916,0,0,1-.787.478,1.562,1.562,0,0,1-.633-.159A7.623,7.623,0,0,1,9.832,24c-.371-.833-.25-1.377.4-1.82a1.842,1.842,0,0,0,1.011-1.615c-.055-1.017-2.3-4.079-3.246-4.426a1.843,1.843,0,0,0-1.253,0A3.626,3.626,0,0,0,4.489,17.99a3.45,3.45,0,0,0,.049,2.785,22.468,22.468,0,0,0,4.93,7.506,23.9,23.9,0,0,0,7.48,4.966,4.142,4.142,0,0,0,.74.22c.069.015.128.029.171.04a.287.287,0,0,0,.073.01h.023a4.243,4.243,0,0,0,3.524-2.682C21.922,29.585,21.113,28.966,20.463,28.47Z" transform="translate(-4.219 -15.109)" fill="#f8f8f8"/>
    <path id="XMLID_11_" d="M171.043,83.556a.851.851,0,0,0-.895.516.691.691,0,0,0,.029.6.9.9,0,0,0,.678.358,1.6,1.6,0,0,1,1.487,1.6.757.757,0,0,0,.721.748h0a.711.711,0,0,0,.086-.005c.458-.054.68-.391.66-1a2.855,2.855,0,0,0-.891-1.932A2.659,2.659,0,0,0,171.043,83.556Z" transform="translate(-160.611 -78.779)" fill="#f8f8f8"/>
  </g>
</svg>
