<svg xmlns="http://www.w3.org/2000/svg" width="28.003" height="15.979" viewBox="0 0 28.003 15.979">
  <g id="_002-vk" data-name="002-vk" transform="translate(0 0)">
    <g id="Group_100" data-name="Group 100">
      <path id="Path_97" data-name="Path 97" d="M27.754,124.176a12.485,12.485,0,0,0-2.781-3.217c-2.345-2.177-2.03-1.824.795-5.589,1.721-2.293,2.408-3.693,2.193-4.292-.2-.571-1.47-.42-1.47-.42l-4.208.024a.962.962,0,0,0-.544.1,1.185,1.185,0,0,0-.371.452,24.376,24.376,0,0,1-1.556,3.284c-1.875,3.184-2.626,3.352-2.932,3.154-.712-.46-.534-1.852-.534-2.839,0-3.086.467-4.372-.912-4.7a7.222,7.222,0,0,0-1.966-.2,9.091,9.091,0,0,0-3.494.357c-.48.235-.849.758-.623.788a1.887,1.887,0,0,1,1.243.625,4.054,4.054,0,0,1,.417,1.906s.249,3.632-.579,4.084c-.569.31-1.348-.322-3.019-3.212a26.938,26.938,0,0,1-1.5-3.116,1.243,1.243,0,0,0-.347-.467,1.745,1.745,0,0,0-.648-.261l-4,.025s-.6.018-.821.278c-.2.233-.016.712-.016.712s3.133,7.329,6.679,11.024a9.612,9.612,0,0,0,6.947,3.165h1.673a1.411,1.411,0,0,0,.763-.334,1.219,1.219,0,0,0,.229-.735s-.033-2.246,1.01-2.577c1.027-.326,2.347,2.17,3.746,3.131a2.649,2.649,0,0,0,1.861.567l3.741-.052S28.682,125.714,27.754,124.176Z" transform="translate(0 -109.924)" fill="#f8f8f8"/>
    </g>
  </g>
</svg>
