<svg xmlns="http://www.w3.org/2000/svg" width="21.588" height="21.588" viewBox="0 0 21.588 21.588">
  <g id="_003-whatsapp" data-name="003-whatsapp" transform="translate(0 0)">
    <g id="Group_101" data-name="Group 101">
      <path id="Path_98" data-name="Path 98" d="M10.8,0h-.005A10.787,10.787,0,0,0,2.055,17.121L.71,21.131,4.859,19.8A10.792,10.792,0,1,0,10.8,0Zm6.281,15.243a3.046,3.046,0,0,1-2.118,1.523c-.564.12-1.3.216-3.781-.812A13.522,13.522,0,0,1,5.8,11.207,6.165,6.165,0,0,1,4.523,7.951a3.446,3.446,0,0,1,1.1-2.627,1.568,1.568,0,0,1,1.1-.387c.134,0,.254.007.362.012.317.013.476.032.685.533.26.627.895,2.176.97,2.336a.642.642,0,0,1,.046.584,1.865,1.865,0,0,1-.349.5c-.159.183-.31.324-.47.521-.146.171-.31.355-.127.672A9.581,9.581,0,0,0,9.6,12.266a7.936,7.936,0,0,0,2.531,1.561.682.682,0,0,0,.761-.12,13.059,13.059,0,0,0,.843-1.117.6.6,0,0,1,.774-.235c.291.1,1.834.864,2.151,1.021s.526.235.6.368A2.688,2.688,0,0,1,17.078,15.243Z" transform="translate(0 0)" fill="#f8f8f8"/>
    </g>
  </g>
</svg>
