<svg xmlns="http://www.w3.org/2000/svg" xmlns:xlink="http://www.w3.org/1999/xlink" width="70" height="70" viewBox="0 0 70 70">
  <defs>
    <clipPath id="clip-path">
      <rect id="Rectangle_110" data-name="Rectangle 110" width="70" height="70" transform="translate(439 1053)" fill="#fff" stroke="#707070" stroke-width="1"/>
    </clipPath>
  </defs>
  <g id="Mask_Group_19" data-name="Mask Group 19" transform="translate(-439 -1053)" clip-path="url(#clip-path)">
    <g id="thermometer_1_" data-name="thermometer (1)" transform="translate(460.003 1053)">
      <path id="Path_287" data-name="Path 287" d="M21.82,32.03a1.14,1.14,0,0,1-1.14-1.141V8.57A6.289,6.289,0,1,0,8.1,8.57V30.889a1.141,1.141,0,1,1-2.281,0V8.57a8.57,8.57,0,0,1,17.141,0V30.889A1.141,1.141,0,0,1,21.82,32.03Zm0,0"/>
      <path id="Path_288" data-name="Path 288" d="M13.9,70A13.813,13.813,0,0,1,5.82,44.978V30.889a1.141,1.141,0,0,1,1.141-1.141H21.82a1.141,1.141,0,0,1,1.141,1.141V45.761A13.812,13.812,0,0,1,13.9,70ZM8.1,32.03V45.578a1.142,1.142,0,0,1-.516.954,11.537,11.537,0,1,0,13.52.652,1.143,1.143,0,0,1-.426-.89V32.03Zm0,0"/>
      <path id="Path_289" data-name="Path 289" d="M21.219,37.641H14.945a1.141,1.141,0,1,1,0-2.281h6.274a1.141,1.141,0,1,1,0,2.281Zm0,0"/>
      <path id="Path_290" data-name="Path 290" d="M21.219,43.345H14.945a1.141,1.141,0,1,1,0-2.281h6.274a1.141,1.141,0,1,1,0,2.281Zm0,0"/>
      <path id="Path_291" data-name="Path 291" d="M13.8,65.017A7.994,7.994,0,0,1,5.82,57.033a1.141,1.141,0,1,1,2.281,0,5.71,5.71,0,0,0,5.7,5.7,1.141,1.141,0,1,1,0,2.281Zm0,0"/>
    </g>
  </g>
</svg>
