<svg xmlns="http://www.w3.org/2000/svg" xmlns:xlink="http://www.w3.org/1999/xlink" width="70" height="70" viewBox="0 0 70 70">
  <defs>
    <clipPath id="clip-path">
      <rect id="Rectangle_110" data-name="Rectangle 110" width="70" height="70" transform="translate(439 1053)" fill="#fff" stroke="#707070" stroke-width="1"/>
    </clipPath>
  </defs>
  <g id="Mask_Group_18" data-name="Mask Group 18" transform="translate(-439 -1053)" clip-path="url(#clip-path)">
    <g id="clean" transform="translate(439 1053)">
      <g id="Group_132" data-name="Group 132">
        <g id="Group_131" data-name="Group 131">
          <path id="Path_283" data-name="Path 283" d="M69.792,39.193a1.423,1.423,0,0,0-.955-.608c-2,0-19.184-.694-19.184-20.66a1.128,1.128,0,0,0-2.257,0c0,19.965-17.188,20.66-19.1,20.66a.986.986,0,0,0-.694.26c-.174.087-.26.26-.347.347a1.288,1.288,0,0,0,0,1.128,1.2,1.2,0,0,0,1.042.608h.087c2,0,19.1.694,19.1,20.66a1.128,1.128,0,1,0,2.257,0c0-19.879,17.1-20.66,19.1-20.66a1.324,1.324,0,0,0,1.042-.608A1.067,1.067,0,0,0,69.792,39.193ZM48.525,53.082c-2.517-8.247-8.681-11.806-13.542-13.368,4.861-1.563,11.024-5.122,13.542-13.368,2.517,8.247,8.681,11.806,13.542,13.368C57.205,41.277,51.042,44.836,48.525,53.082Z"/>
          <path id="Path_284" data-name="Path 284" d="M34.2,16.624a1.17,1.17,0,0,0,1.128-1.215A1.149,1.149,0,0,0,34.2,14.28C33.16,14.28,23.785,13.933,23.785,3a1.128,1.128,0,1,0-2.257,0c0,10.938-9.375,11.285-10.417,11.285h-.087a1.133,1.133,0,0,0-1.042,1.128,1.149,1.149,0,0,0,1.128,1.128c1.128,0,10.417.347,10.417,11.285a1.149,1.149,0,0,0,1.128,1.128A1,1,0,0,0,23.7,27.908c0-10.938,9.375-11.285,10.417-11.285H34.2ZM22.57,21.572a11.641,11.641,0,0,0-6.25-6.163,11.679,11.679,0,0,0,6.25-6.163,11.641,11.641,0,0,0,6.25,6.163A11.679,11.679,0,0,0,22.57,21.572Z"/>
          <path id="Path_285" data-name="Path 285" d="M24.219,53.429c-1.042,0-10.417-.347-10.417-11.285a1.128,1.128,0,0,0-2.257,0c0,10.938-9.375,11.285-10.417,11.285H1.042A1.133,1.133,0,0,0,0,54.558a1.149,1.149,0,0,0,1.128,1.128c1.128,0,10.417.347,10.417,11.285A1.149,1.149,0,0,0,12.674,68.1c.521.174,1.042-.347,1.042-1.042,0-10.938,9.375-11.285,10.417-11.285h.087a1.17,1.17,0,0,0,1.128-1.215A1.149,1.149,0,0,0,24.219,53.429ZM12.587,60.808a11.929,11.929,0,0,0-6.25-6.163,11.679,11.679,0,0,0,6.25-6.163,11.641,11.641,0,0,0,6.25,6.163A11.679,11.679,0,0,0,12.587,60.808Z"/>
        </g>
      </g>
    </g>
  </g>
</svg>
