<svg xmlns="http://www.w3.org/2000/svg" xmlns:xlink="http://www.w3.org/1999/xlink" width="70" height="70" viewBox="0 0 70 70">
  <defs>
    <clipPath id="clip-path">
      <rect id="Rectangle_110" data-name="Rectangle 110" width="70" height="70" transform="translate(439 1053)" fill="#fff" stroke="#000" stroke-width="0.9"/>
    </clipPath>
  </defs>
  <g id="Mask_Group_17" data-name="Mask Group 17" transform="translate(-439 -1053)" clip-path="url(#clip-path)">
    <g id="sun" transform="translate(440.075 1054.074)">
      <path id="Path_274" data-name="Path 274" d="M34.421,52.652A18.23,18.23,0,1,1,52.65,34.423,18.249,18.249,0,0,1,34.421,52.652Zm0-34.514A16.283,16.283,0,1,0,50.7,34.423,16.3,16.3,0,0,0,34.421,18.138Z" transform="translate(-0.497 -0.497)" stroke="#000" stroke-width="0.9"/>
      <g id="Group_127" data-name="Group 127" transform="translate(32.95)">
        <path id="Path_275" data-name="Path 275" d="M34.967,9.7a.974.974,0,0,1-.973-.973V.973a.973.973,0,0,1,1.947,0V8.726A.971.971,0,0,1,34.967,9.7Z" transform="translate(-33.994)" stroke="#000" stroke-width="0.9"/>
        <path id="Path_276" data-name="Path 276" d="M34.967,69.693a.974.974,0,0,1-.973-.973V60.967a.973.973,0,0,1,1.947,0v7.753A.973.973,0,0,1,34.967,69.693Z" transform="translate(-33.994 -1.842)" stroke="#000" stroke-width="0.9"/>
      </g>
      <g id="Group_128" data-name="Group 128" transform="translate(0 32.952)">
        <path id="Path_277" data-name="Path 277" d="M8.726,35.943H.973A.973.973,0,1,1,.973,34H8.724a.973.973,0,0,1,0,1.947Z" transform="translate(0 -33.996)" stroke="#000" stroke-width="0.9"/>
        <path id="Path_278" data-name="Path 278" d="M68.717,35.943H60.965a.973.973,0,1,1,0-1.947h7.753a.973.973,0,1,1,0,1.947Z" transform="translate(-1.842 -33.996)" stroke="#000" stroke-width="0.9"/>
      </g>
      <g id="Group_129" data-name="Group 129" transform="translate(9.652 9.652)">
        <path id="Path_279" data-name="Path 279" d="M16.415,17.382a.978.978,0,0,1-.689-.284l-5.483-5.479a.973.973,0,0,1,1.376-1.376L17.1,15.722a.974.974,0,0,1,0,1.376A.962.962,0,0,1,16.415,17.382Z" transform="translate(-9.958 -9.958)" stroke="#000" stroke-width="0.9"/>
        <path id="Path_280" data-name="Path 280" d="M58.835,59.808a.978.978,0,0,1-.689-.284l-5.483-5.485a.973.973,0,0,1,1.376-1.376l5.483,5.485a.972.972,0,0,1-.687,1.661Z" transform="translate(-11.26 -11.26)" stroke="#000" stroke-width="0.9"/>
      </g>
      <g id="Group_130" data-name="Group 130" transform="translate(9.652 9.652)">
        <path id="Path_281" data-name="Path 281" d="M10.932,59.808a.973.973,0,0,1-.689-1.661l5.483-5.485A.973.973,0,0,1,17.1,54.039l-5.483,5.485A.977.977,0,0,1,10.932,59.808Z" transform="translate(-9.958 -11.26)" stroke="#000" stroke-width="0.9"/>
        <path id="Path_282" data-name="Path 282" d="M53.352,17.382a.973.973,0,0,1-.689-1.661l5.483-5.479a.973.973,0,0,1,1.376,1.376L54.039,17.1A.962.962,0,0,1,53.352,17.382Z" transform="translate(-11.26 -9.958)" stroke="#000" stroke-width="0.9"/>
      </g>
    </g>
  </g>
</svg>
