<svg id="time" xmlns="http://www.w3.org/2000/svg" width="23.942" height="23.942" viewBox="0 0 23.942 23.942">
  <path id="Path_13" data-name="Path 13" d="M11.971,0A11.971,11.971,0,1,0,23.942,11.971,11.985,11.985,0,0,0,11.971,0Zm0,23.144A11.173,11.173,0,1,1,23.144,11.971,11.186,11.186,0,0,1,11.971,23.144Z" fill="#e41839"/>
  <path id="Path_14" data-name="Path 14" d="M19.784,6a.4.4,0,0,0-.4.4v9.178H13.4a.4.4,0,0,0,0,.8h6.385a.4.4,0,0,0,.4-.4V6.4A.4.4,0,0,0,19.784,6Z" transform="translate(-7.812 -3.606)" fill="#e41839"/>
</svg>
