<svg xmlns="http://www.w3.org/2000/svg" width="92" height="92" viewBox="0 0 92 92">
  <g id="diamond_filled_" data-name="diamond (filled)" transform="translate(0 -0.027)">
    <path id="Path_23" data-name="Path 23" d="M10,221.054,54.22,271.2l44.21-50.144Z" transform="translate(-8.214 -180.956)" fill="#fff"/>
    <g id="Group_32" data-name="Group 32" transform="translate(1.785 17.781)">
      <path id="Path_24" data-name="Path 24" d="M10,221.054,54.22,271.2l44.21-50.144Z" transform="translate(-9.999 -198.737)" fill="#e6193a"/>
      <path id="Path_25" data-name="Path 25" d="M24.815,96.03l-14.8,22.317H98.439L83.7,96.03Z" transform="translate(-10.009 -96.03)" fill="#e6193a"/>
    </g>
    <path id="Path_26" data-name="Path 26" d="M174.039,118.347,188.674,96.03l14.635,22.317Z" transform="translate(-142.669 -78.713)" fill="#fff"/>
    <g id="Group_33" data-name="Group 33" transform="translate(1.854 17.781)">
      <path id="Path_27" data-name="Path 27" d="M338.02,118.347,352.655,96.03l14.635,22.317Z" transform="translate(-278.93 -96.03)" fill="#fff"/>
      <path id="Path_28" data-name="Path 28" d="M10.388,118.347,25.023,96.03l14.635,22.317Z" transform="translate(-10.388 -96.03)" fill="#fff"/>
      <path id="Path_29" data-name="Path 29" d="M203.31,221.054h-29.27l14.635,49.965Z" transform="translate(-144.524 -198.737)" fill="#fff"/>
      <path id="Path_36" data-name="Path 36" d="M203.31,221.054h-29.27l14.635,49.965Z" transform="translate(-144.523 -198.737)" fill="#e6193a" opacity="0.5"/>
      <path id="Path_37" data-name="Path 37" d="M338.02,118.347,352.655,96.03l14.635,22.317Z" transform="translate(-278.93 -96.03)" fill="#e6193a" opacity="0.2"/>
      <path id="Path_38" data-name="Path 38" d="M10.388,118.347,25.023,96.03l14.635,22.317Z" transform="translate(-10.388 -96.03)" fill="#e6193a" opacity="0.2"/>
    </g>
    <g id="Group_34" data-name="Group 34" transform="translate(7.789 1.812)">
      <path id="Path_30" data-name="Path 30" d="M53.77,300.508h0a10.135,10.135,0,0,0-10.135-10.135h0A10.135,10.135,0,0,0,53.77,280.239h0A10.135,10.135,0,0,0,63.9,290.374h0A10.135,10.135,0,0,0,53.77,300.508Z" transform="translate(-43.635 -232.006)" fill="#e6193a"/>
      <path id="Path_31" data-name="Path 31" d="M429.148,24.3h0a7.139,7.139,0,0,0-7.139-7.139h0a7.139,7.139,0,0,0,7.139-7.139h0a7.139,7.139,0,0,0,7.139,7.139h0A7.14,7.14,0,0,0,429.148,24.3Z" transform="translate(-353.861 -10.025)" fill="#e6193a"/>
    </g>
    <path id="Path_32" data-name="Path 32" d="M76.973,86.843a1.8,1.8,0,0,0-1.5-.813H16.6a1.8,1.8,0,0,0-1.5.81L.343,109.271a1.8,1.8,0,0,0,.1,2.242l7.479,8.552a1.8,1.8,0,1,0,2.7-2.371l-4.869-5.568H29.927L42.072,153.65,28.348,137.957a1.8,1.8,0,1,0-2.7,2.371l19.009,21.736a1.794,1.794,0,0,0,2.7,0L67.6,138.917a1.8,1.8,0,1,0-2.7-2.37l-14.952,17.1,12.144-41.521H86.242l-11.173,12.78a1.8,1.8,0,1,0,2.7,2.37l13.783-15.765a1.8,1.8,0,0,0,.151-2.172Zm9.9,21.686H64.065L75.471,91.111ZM31.3,107,19.926,89.629H42.679Zm14.7-15.891,11.406,17.418H34.6Zm3.327-1.482H72.144L60.738,107.047ZM16.6,91.105,28,108.528H5.134ZM46.005,154.3,33.671,112.127H58.34Z" transform="translate(0 -70.652)" fill="#222"/>
    <path id="Path_33" data-name="Path 33" d="M57.475,282.159a1.785,1.785,0,0,0-1.785-1.785,8.359,8.359,0,0,1-8.35-8.35,1.785,1.785,0,0,0-3.57,0,8.359,8.359,0,0,1-8.35,8.35,1.785,1.785,0,0,0,0,3.57,8.359,8.359,0,0,1,8.35,8.35,1.785,1.785,0,1,0,3.57,0,8.359,8.359,0,0,1,8.35-8.35A1.785,1.785,0,0,0,57.475,282.159Zm-11.919,3.867a12.014,12.014,0,0,0-3.866-3.867,12.011,12.011,0,0,0,3.866-3.866,12.013,12.013,0,0,0,3.866,3.866A12.014,12.014,0,0,0,45.555,286.026Z" transform="translate(-27.632 -221.539)" fill="#222"/>
    <path id="Path_34" data-name="Path 34" d="M413.795,10.736a5.361,5.361,0,0,1,5.354,5.354,1.785,1.785,0,1,0,3.57,0,5.361,5.361,0,0,1,5.354-5.354,1.785,1.785,0,1,0,0-3.57,5.361,5.361,0,0,1-5.354-5.354,1.785,1.785,0,1,0-3.57,0,5.361,5.361,0,0,1-5.354,5.354,1.785,1.785,0,0,0,0,3.57Zm7.139-3.575a9,9,0,0,0,1.79,1.79,9,9,0,0,0-1.79,1.79,9,9,0,0,0-1.79-1.79A9.006,9.006,0,0,0,420.934,7.161Z" transform="translate(-337.858)" fill="#222"/>
    <path id="Path_35" data-name="Path 35" d="M387.5,332.442a1.786,1.786,0,1,0,1.262.523A1.793,1.793,0,0,0,387.5,332.442Z" transform="translate(-316.389 -272.662)"/>
  </g>
</svg>
