<svg id="like_filled_" data-name="like (filled)" xmlns="http://www.w3.org/2000/svg" width="91.542" height="91.542" viewBox="0 0 91.542 91.542">
  <path id="Path_80" data-name="Path 80" d="M38.68,251.23v-6.4a4.025,4.025,0,0,0-4.025-4.025H10v46.37H34.655a4.025,4.025,0,0,0,4.025-4.025V251.23Z" transform="translate(-8.212 -197.751)" fill="#e6193a"/>
  <path id="Path_81" data-name="Path 81" d="M223.349,143.31H218.7a5.8,5.8,0,0,0,5.8-5.8h0a5.8,5.8,0,0,0-5.8-5.8H196.311l3.4-10.086a10.276,10.276,0,0,0-6.749-13.112l-3.137-.954-4.929,13.623A18.6,18.6,0,0,1,176.3,131.2l-6.559,3.572.12,39.911,4.171,1.636a25.7,25.7,0,0,0,9.383,1.774h31.241a5.8,5.8,0,0,0,5.8-5.8h0a5.8,5.8,0,0,0-5.8-5.8h4.506a5.8,5.8,0,0,0,5.8-5.8h0a5.8,5.8,0,0,0-5.8-5.8h4.189a5.8,5.8,0,0,0,5.8-5.8h0A5.8,5.8,0,0,0,223.349,143.31Z" transform="translate(-139.391 -88.334)" fill="#ffcdac"/>
  <ellipse id="Ellipse_6" data-name="Ellipse 6" cx="3.22" cy="3.22" rx="3.22" ry="3.22" transform="translate(16.299 76.082)" fill="#fff"/>
  <path id="Path_82" data-name="Path 82" d="M162.2,327.89a1.786,1.786,0,1,0,1.264.522A1.8,1.8,0,0,0,162.2,327.89Z" transform="translate(-131.73 -269.266)" fill="#222"/>
  <path id="Path_83" data-name="Path 83" d="M91.542,140.893a7.6,7.6,0,0,0-5.922-7.4,7.58,7.58,0,0,0-6.315-11.779h-19.9l2.6-7.727A12.064,12.064,0,0,0,54.088,98.6l-3.137-.953a1.787,1.787,0,0,0-2.2,1.1l-4.929,13.623a16.8,16.8,0,0,1-7.769,9.044l-4.924,2.682a5.808,5.808,0,0,0-4.685-2.377H1.788A1.788,1.788,0,0,0,0,123.5v46.37a1.788,1.788,0,0,0,1.788,1.788H26.443a5.815,5.815,0,0,0,5.02-2.887l2.524.99a27.378,27.378,0,0,0,10.036,1.9H75.263a7.581,7.581,0,0,0,6.3-11.808,7.577,7.577,0,0,0,4.456-11.663A7.6,7.6,0,0,0,91.542,140.893ZM83.958,144.9H65.568a1.788,1.788,0,1,0,0,3.576h14.2a4.008,4.008,0,1,1,0,8.017h-14.2a1.788,1.788,0,1,0,0,3.576h9.7a4.008,4.008,0,0,1,0,8.017H44.022a23.816,23.816,0,0,1-8.73-1.651l-3.036-1.191V147.7a1.788,1.788,0,1,0-3.576,0v18.145a2.24,2.24,0,0,1-2.237,2.237H3.576V125.292H26.443a2.24,2.24,0,0,1,2.237,2.237V133.6a1.788,1.788,0,1,0,3.576,0v-6.049l5.506-3a20.369,20.369,0,0,0,9.421-10.968l4.352-12.027,1.513.46a8.488,8.488,0,0,1,5.575,10.831l-3.4,10.086a1.788,1.788,0,0,0,1.694,2.359H79.305a4.008,4.008,0,1,1,0,8.017H65.568a1.788,1.788,0,1,0,0,3.576h18.39a4.008,4.008,0,0,1,0,8.017Z" transform="translate(0 -80.12)" fill="#222"/>
  <path id="Path_84" data-name="Path 84" d="M86.17,415.53a5.008,5.008,0,1,0,5.008,5.008A5.014,5.014,0,0,0,86.17,415.53Zm0,6.44a1.432,1.432,0,1,1,1.432-1.432A1.434,1.434,0,0,1,86.17,421.97Z" transform="translate(-66.651 -341.236)" fill="#222"/>
  <path id="Path_85" data-name="Path 85" d="M290.607,3.576a1.789,1.789,0,0,0,1.788-1.788,1.788,1.788,0,1,0-3.052,1.264A1.8,1.8,0,0,0,290.607,3.576Z" transform="translate(-237.18 0)" fill="#222"/>
  <path id="Path_86" data-name="Path 86" d="M290.608,37.333a1.788,1.788,0,0,0-1.788,1.788v4.351a1.788,1.788,0,0,0,3.576,0V39.121A1.788,1.788,0,0,0,290.608,37.333Z" transform="translate(-237.181 -30.658)" fill="#222"/>
  <path id="Path_87" data-name="Path 87" d="M358.393,133.054a1.788,1.788,0,0,0,1.788,1.788h11.025a1.788,1.788,0,1,0,0-3.576H360.181A1.788,1.788,0,0,0,358.393,133.054Z" transform="translate(-294.315 -107.797)" fill="#222"/>
  <path id="Path_88" data-name="Path 88" d="M159.342,134.815h11.026a1.788,1.788,0,1,0,0-3.576H159.342a1.788,1.788,0,1,0,0,3.576Z" transform="translate(-129.385 -107.774)" fill="#222"/>
  <path id="Path_89" data-name="Path 89" d="M208.892,53.848a1.788,1.788,0,0,0,2.528-2.529l-5.206-5.206a1.788,1.788,0,0,0-2.529,2.529Z" transform="translate(-166.838 -37.439)" fill="#222"/>
  <path id="Path_90" data-name="Path 90" d="M347.141,54.39a1.783,1.783,0,0,0,1.264-.524l5.206-5.206a1.788,1.788,0,0,0-2.529-2.529l-5.206,5.206a1.788,1.788,0,0,0,1.264,3.052Z" transform="translate(-283.607 -37.454)" fill="#222"/>
</svg>
