<svg xmlns="http://www.w3.org/2000/svg" width="23.911" height="16.999" viewBox="0 0 23.911 16.999">
  <g id="mail" transform="translate(0 -4.482)">
    <g id="Group_23" data-name="Group 23" transform="translate(4.165 12.678)">
      <path id="Path_15" data-name="Path 15" d="M23.677,20.045a.382.382,0,0,1-.264-.1l-4.437-4.162a.385.385,0,1,1,.528-.561l4.437,4.162a.386.386,0,0,1-.264.666Z" transform="translate(-8.482 -15.111)" fill="#e41839"/>
      <path id="Path_16" data-name="Path 16" d="M5.787,20.045a.385.385,0,0,1-.264-.666l4.438-4.162a.385.385,0,1,1,.528.561L6.051,19.94A.382.382,0,0,1,5.787,20.045Z" transform="translate(-5.402 -15.112)" fill="#e41839"/>
    </g>
    <path id="Path_17" data-name="Path 17" d="M21.984,21.481H1.928A1.93,1.93,0,0,1,0,19.553V6.41A1.93,1.93,0,0,1,1.928,4.482H21.984A1.93,1.93,0,0,1,23.911,6.41V19.553A1.93,1.93,0,0,1,21.984,21.481ZM1.928,5.253A1.158,1.158,0,0,0,.771,6.41V19.553A1.158,1.158,0,0,0,1.928,20.71H21.984a1.158,1.158,0,0,0,1.157-1.157V6.41a1.158,1.158,0,0,0-1.157-1.157Z" fill="#e41839"/>
    <path id="Path_18" data-name="Path 18" d="M12.106,15.1a2.156,2.156,0,0,1-1.416-.51L.791,5.954A.386.386,0,1,1,1.3,5.373l9.9,8.636a1.443,1.443,0,0,0,1.817,0L22.9,5.387a.386.386,0,0,1,.507.581L13.522,14.59A2.154,2.154,0,0,1,12.106,15.1Z" transform="translate(-0.151 -0.182)" fill="#e41839"/>
  </g>
</svg>
