<svg xmlns="http://www.w3.org/2000/svg" width="18" height="18" viewBox="0 0 18 18">
  <g id="phone-call" transform="translate(0.001 0)">
    <path id="Path_5" data-name="Path 5" d="M14.467,18a7.731,7.731,0,0,1-2.648-.563,19.867,19.867,0,0,1-6.681-4.575A19.882,19.882,0,0,1,.562,6.18c-.748-1.983-.75-3.61,0-4.355.107-.107.216-.222.329-.341A3.526,3.526,0,0,1,3.353,0,2.952,2.952,0,0,1,5.431,1.333C7.488,3.891,6.56,4.8,5.487,5.86L5.3,6.048c-.176.176-.507.989,2.579,4.075a17.115,17.115,0,0,0,2.553,2.191c.432.281,1.205.706,1.523.389l.191-.193c1.056-1.071,1.968-2,4.524.06A2.95,2.95,0,0,1,18,14.648a3.508,3.508,0,0,1-1.485,2.467c-.118.113-.233.222-.34.328A2.358,2.358,0,0,1,14.467,18ZM3.28.605c-.723,0-1.377.688-1.955,1.3-.116.122-.229.241-.34.352-.555.555-.5,2.012.143,3.714a19.273,19.273,0,0,0,4.438,6.468,19.259,19.259,0,0,0,6.467,4.436c1.7.643,3.159.7,3.713.143.111-.111.229-.223.352-.339.622-.591,1.327-1.261,1.3-2a2.448,2.448,0,0,0-1.1-1.632c-2.131-1.713-2.726-1.109-3.714-.107l-.194.2c-.472.473-1.239.368-2.281-.309A17.678,17.678,0,0,1,7.449,10.55C4.888,7.989,4.068,6.421,4.87,5.618l.193-.191c1-.988,1.61-1.584-.1-3.716A2.456,2.456,0,0,0,3.327.606Z" transform="translate(0 0)" fill="#222" opacity="0.8"/>
  </g>
</svg>
