<svg xmlns="http://www.w3.org/2000/svg" width="20.863" height="20.846" viewBox="0 0 20.863 20.846">
  <g id="phone-call_1_" data-name="phone-call (1)" transform="translate(0.537 0.613)">
    <g id="Group_10" data-name="Group 10" transform="translate(0 0.003)">
      <path id="Path_6" data-name="Path 6" d="M15.858,19.733a8.481,8.481,0,0,1-2.9-.617A21.783,21.783,0,0,1,5.632,14.1,21.781,21.781,0,0,1,.617,6.777C-.2,4.6-.206,2.82.611,2c.118-.118.238-.244.362-.374C1.717.847,2.58-.043,3.675.005a3.241,3.241,0,0,1,2.28,1.459c2.254,2.8,1.238,3.8.062,4.962l-.208.206c-.192.192-.557,1.083,2.827,4.466a18.832,18.832,0,0,0,2.8,2.4c.474.308,1.321.772,1.668.425l.209-.211c1.157-1.175,2.157-2.187,4.96.066a3.234,3.234,0,0,1,1.459,2.279c.046,1.116-.843,1.96-1.628,2.7-.129.123-.255.242-.372.358A2.59,2.59,0,0,1,15.858,19.733ZM3.6.666c-.792,0-1.509.754-2.143,1.42-.128.134-.252.265-.374.386-.608.607-.546,2.205.158,4.071A21.12,21.12,0,0,0,6.1,13.633,21.12,21.12,0,0,0,13.19,18.5c1.865.7,3.464.765,4.071.157.121-.121.251-.244.384-.37.682-.648,1.455-1.382,1.422-2.2A2.682,2.682,0,0,0,17.855,14.3c-2.336-1.877-2.988-1.213-4.071-.117l-.212.214c-.516.518-1.356.4-2.5-.338a19.458,19.458,0,0,1-2.906-2.489h0C5.358,8.758,4.46,7.041,5.339,6.161l.212-.21c1.1-1.083,1.764-1.737-.113-4.073A2.69,2.69,0,0,0,3.648.667Z" transform="translate(0 -0.003)" fill="#fff" stroke="#fff" stroke-width="1"/>
    </g>
    <g id="Group_11" data-name="Group 11" transform="translate(10.146 0.007)">
      <path id="Path_7" data-name="Path 7" d="M21.784,9.779a.332.332,0,0,1-.307-.456,2.79,2.79,0,0,0-3.734-3.59.331.331,0,1,1-.273-.6,3.453,3.453,0,0,1,4.622,4.444A.333.333,0,0,1,21.784,9.779Z" transform="translate(-15.957 -1.629)" fill="#fff" stroke="#fff" stroke-width="1"/>
      <path id="Path_8" data-name="Path 8" d="M24.079,9.362a.332.332,0,0,1-.307-.456A5.987,5.987,0,0,0,15.757,1.2a.332.332,0,0,1-.273-.606,6.651,6.651,0,0,1,8.9,8.561A.332.332,0,0,1,24.079,9.362Z" transform="translate(-15.289 -0.009)" fill="#fff" stroke="#fff" stroke-width="1"/>
    </g>
  </g>
</svg>
