<svg xmlns="http://www.w3.org/2000/svg" width="25.074" height="25.074" viewBox="0 0 25.074 25.074">
  <g id="phone-call" transform="translate(0.001)">
    <path id="Path_5" data-name="Path 5" d="M20.152,25.074a10.769,10.769,0,0,1-3.689-.784,27.675,27.675,0,0,1-9.307-6.372A27.7,27.7,0,0,1,.783,8.609C-.259,5.847-.261,3.58.777,2.543c.149-.149.3-.31.458-.475C2.182,1.072,3.252-.049,4.671,0A4.112,4.112,0,0,1,7.565,1.856c2.866,3.564,1.574,4.834.078,6.307l-.264.261c-.245.245-.707,1.377,3.593,5.677a23.841,23.841,0,0,0,3.556,3.052c.6.391,1.679.983,2.121.541l.266-.268c1.471-1.492,2.741-2.78,6.3.083a4.109,4.109,0,0,1,1.854,2.9C25.13,21.823,24,22.9,23,23.842c-.164.157-.325.309-.474.457A3.285,3.285,0,0,1,20.152,25.074ZM4.569.843c-1.008,0-1.918.958-2.723,1.806-.162.17-.319.336-.473.49-.773.773-.695,2.8.2,5.173a26.847,26.847,0,0,0,6.182,9.01A26.828,26.828,0,0,0,16.762,23.5c2.371.9,4.4.972,5.172.2.154-.154.32-.311.49-.472.866-.823,1.849-1.756,1.806-2.791a3.41,3.41,0,0,0-1.539-2.273c-2.968-2.387-3.8-1.544-5.174-.148l-.27.272c-.658.659-1.726.513-3.177-.43A24.626,24.626,0,0,1,10.377,14.7c-3.568-3.567-4.709-5.751-3.593-6.87l.269-.266c1.4-1.376,2.243-2.207-.144-5.177A3.421,3.421,0,0,0,4.635.844Z" transform="translate(0)" fill="#e41839"/>
  </g>
</svg>
