<svg xmlns="http://www.w3.org/2000/svg" width="19.552" height="27.917" viewBox="0 0 19.552 27.917">
  <g id="placeholder" transform="translate(-8.203 0)">
    <path id="Path_11" data-name="Path 11" d="M24.126,12a3.569,3.569,0,1,0,3.569,3.569A3.573,3.573,0,0,0,24.126,12Zm0,6.118a2.549,2.549,0,1,1,2.549-2.549A2.552,2.552,0,0,1,24.126,18.118Z" transform="translate(-6.056 -5.882)" fill="#e41839"/>
    <path id="Path_12" data-name="Path 12" d="M24.893,2.864a9.777,9.777,0,0,0-13.827,0,11.136,11.136,0,0,0-.92,13.741L17.98,27.917,25.8,16.62A11.14,11.14,0,0,0,24.893,2.864Zm.081,13.161-6.994,10.1L10.974,16.009a10.061,10.061,0,0,1,.814-12.424,8.757,8.757,0,0,1,12.384,0A10.066,10.066,0,0,1,24.974,16.024Z" transform="translate(0 0)" fill="#e41839"/>
  </g>
</svg>
