<svg xmlns="http://www.w3.org/2000/svg" width="81.533" height="92.269" viewBox="0 0 81.533 92.269">
  <g id="timer_filled_" data-name="timer (filled)" transform="translate(0)">
    <ellipse id="Ellipse_3" data-name="Ellipse 3" cx="37.352" cy="37.352" rx="37.352" ry="37.352" transform="translate(1.802 15.762)" fill="#e6193a"/>
    <g id="Group_63" data-name="Group 63" transform="translate(33.928 9.732)">
      <path id="Path_53" data-name="Path 53" d="M218.054,60.033V54h10.453v6.031" transform="translate(-218.054 -54.002)" fill="#f28b9b"/>
      <path id="Path_54" data-name="Path 54" d="M373.107,108.268,377.372,104l7.391,7.391L380.5,115.66" transform="translate(-345.165 -94.993)" fill="#f28b9b"/>
    </g>
    <g id="Group_64" data-name="Group 64" transform="translate(28.16 1.802)">
      <rect id="Rectangle_81" data-name="Rectangle 81" width="21.987" height="7.93" fill="#e6193a"/>
      <path id="Path_55" data-name="Path 55" d="M396.614,85.284,384.97,73.64l3-3a3.685,3.685,0,0,1,5.211,0l6.434,6.434a3.685,3.685,0,0,1,0,5.211Z" transform="translate(-349.122 -58.826)" fill="#e6193a"/>
    </g>
    <ellipse id="Ellipse_4" data-name="Ellipse 4" cx="29.417" cy="29.417" rx="29.417" ry="29.417" transform="translate(9.737 23.697)" fill="#fff"/>
    <g id="Group_65" data-name="Group 65" transform="translate(34.829 40.318)">
      <ellipse id="Ellipse_5" data-name="Ellipse 5" cx="4.325" cy="4.325" rx="4.325" ry="4.325" transform="translate(0 8.471)" fill="#e6193a"/>
      <path id="Path_56" data-name="Path 56" d="M233.54,232.948l15.232-9.221-9.221,15.232" transform="translate(-231.65 -223.727)" fill="#e6193a"/>
    </g>
    <path id="Path_57" data-name="Path 57" d="M88.317,221.41a35.556,35.556,0,0,1-48.866-49.672,1.8,1.8,0,0,0-2.988-2.016,39.16,39.16,0,0,0,53.82,54.708,1.8,1.8,0,0,0-1.967-3.02Z" transform="translate(-29.786 -138.485)" fill="#222"/>
    <path id="Path_58" data-name="Path 58" d="M385.212,430.43l-.06.061a1.8,1.8,0,0,0,2.559,2.539l.075-.076a1.8,1.8,0,1,0-2.573-2.524Z" transform="translate(-320.682 -352.418)" fill="#222"/>
    <path id="Path_59" data-name="Path 59" d="M180.66,29.535a1.8,1.8,0,0,0,2.549,0l3-3a5.494,5.494,0,0,0,0-7.759l-6.434-6.434a5.487,5.487,0,0,0-7.759,0l-3,3a1.8,1.8,0,0,0,0,2.549l.852.852L167.709,20.9a38.7,38.7,0,0,0-15.244-6.314V11.534h3.965a1.8,1.8,0,0,0,1.8-1.8V1.8a1.8,1.8,0,0,0-1.8-1.8H134.443a1.8,1.8,0,0,0-1.8,1.8v7.93a1.8,1.8,0,0,0,1.8,1.8h3.965v3.057a38.919,38.919,0,0,0-14.5,5.814,1.8,1.8,0,1,0,1.984,3.009A35.557,35.557,0,0,1,175.649,71.86a1.8,1.8,0,1,0,3.061,1.9,39.195,39.195,0,0,0-1.061-42.921l2.159-2.159Zm-6.094-14.646a1.882,1.882,0,0,1,2.662,0l6.434,6.433a1.885,1.885,0,0,1,0,2.662l-1.728,1.727-.85-.85,0,0-7.391-7.391h0l-.851-.851ZM136.245,3.6h18.382V7.93H136.245Zm5.767,10.505V11.534h6.848V14.11c-1.132-.1-2.274-.15-3.424-.15S143.146,14.011,142.012,14.11Zm33.426,13.846q-1.1-1.3-2.315-2.527T170.6,23.113l1.821-1.821,4.842,4.842Z" transform="translate(-106.282 0)" fill="#222"/>
    <path id="Path_60" data-name="Path 60" d="M238.857,160.562a1.8,1.8,0,0,0,1.8-1.8V154.8a1.8,1.8,0,0,0-3.6,0v3.965A1.8,1.8,0,0,0,238.857,160.562Z" transform="translate(-199.703 -125.422)" fill="#222"/>
    <path id="Path_61" data-name="Path 61" d="M332.009,195.182a1.8,1.8,0,1,0-1.274-.528A1.816,1.816,0,0,0,332.009,195.182Z" transform="translate(-276.067 -157.053)" fill="#222"/>
    <path id="Path_62" data-name="Path 62" d="M346.794,286.536a1.8,1.8,0,0,0,1.8,1.8h3.965a1.8,1.8,0,0,0,0-3.6H348.6A1.8,1.8,0,0,0,346.794,286.536Z" transform="translate(-289.665 -233.421)" fill="#222"/>
    <path id="Path_63" data-name="Path 63" d="M332.009,381.49a1.8,1.8,0,1,0-1.274-.528A1.808,1.808,0,0,0,332.009,381.49Z" transform="translate(-276.067 -309.786)" fill="#222"/>
    <path id="Path_64" data-name="Path 64" d="M238.857,394.473a1.8,1.8,0,0,0-1.8,1.8v3.965a1.8,1.8,0,0,0,3.6,0v-3.965A1.8,1.8,0,0,0,238.857,394.473Z" transform="translate(-199.703 -323.384)" fill="#222"/>
    <path id="Path_65" data-name="Path 65" d="M145.7,377.885a1.8,1.8,0,1,0,1.274.528A1.815,1.815,0,0,0,145.7,377.885Z" transform="translate(-123.335 -309.785)" fill="#222"/>
    <path id="Path_66" data-name="Path 66" d="M107.116,288.338h3.965a1.8,1.8,0,1,0,0-3.6h-3.965a1.8,1.8,0,1,0,0,3.6Z" transform="translate(-91.703 -233.421)" fill="#222"/>
    <path id="Path_67" data-name="Path 67" d="M145.7,195.182a1.8,1.8,0,1,0-1.274-.528A1.816,1.816,0,0,0,145.7,195.182Z" transform="translate(-123.335 -157.053)" fill="#222"/>
    <path id="Path_68" data-name="Path 68" d="M219.181,234.452a6.122,6.122,0,0,0,4.975-2.558,4.309,4.309,0,0,0,.358-.56l9-14.874a1.8,1.8,0,0,0-2.475-2.475l-14.876,9.006a4.74,4.74,0,0,0-.539.344,6.124,6.124,0,0,0,3.552,11.116Zm-2.523-6.127a2.522,2.522,0,0,1,1.1-2.081L218,226.1a2.521,2.521,0,0,1,3.409,3.408l-.149.246a2.522,2.522,0,0,1-4.6-1.425Zm7.568-3.472a6.175,6.175,0,0,0-1.573-1.573l3.985-2.413Z" transform="translate(-180.027 -175.21)" fill="#222"/>
    <path id="Path_69" data-name="Path 69" d="M105.037,183.937a31.219,31.219,0,1,0-31.219-31.219A31.254,31.254,0,0,0,105.037,183.937Zm0-58.834a27.615,27.615,0,1,1-27.615,27.615A27.646,27.646,0,0,1,105.037,125.1Z" transform="translate(-65.883 -99.603)" fill="#222"/>
    <path id="Path_70" data-name="Path 70" d="M92.91,141.17a1.8,1.8,0,1,0-1.274-.528A1.816,1.816,0,0,0,92.91,141.17Z" transform="translate(-80.057 -112.775)" fill="#222"/>
  </g>
</svg>
