<svg xmlns="http://www.w3.org/2000/svg" width="15.333" height="20" viewBox="0 0 15.333 20">
  <path id="user" d="M20.671,14.3,17.487,12.7A.877.877,0,0,1,17,11.916V10.789c.076-.093.157-.2.24-.317a7.629,7.629,0,0,0,.985-1.933A1.323,1.323,0,0,0,19,7.333V6a1.329,1.329,0,0,0-.333-.875V3.352a2.988,2.988,0,0,0-.7-2.175A4.2,4.2,0,0,0,14.667,0a4.2,4.2,0,0,0-3.3,1.177,2.989,2.989,0,0,0-.7,2.175V5.125A1.329,1.329,0,0,0,10.333,6V7.333a1.325,1.325,0,0,0,.5,1.036A7,7,0,0,0,12,10.782v1.1a.881.881,0,0,1-.459.773L8.567,14.28A3.006,3.006,0,0,0,7,16.921V18c0,1.582,5.015,2,7.667,2s7.667-.418,7.667-2V16.986A2.991,2.991,0,0,0,20.671,14.3Zm1,3.7c0,.452-2.471,1.333-7,1.333s-7-.881-7-1.333V16.921a2.339,2.339,0,0,1,1.22-2.055l2.974-1.622a1.548,1.548,0,0,0,.807-1.359v-1.34l-.078-.093A6.293,6.293,0,0,1,11.452,8.1l-.03-.132-.114-.073A.665.665,0,0,1,11,7.333V6a.658.658,0,0,1,.223-.492l.11-.1V3.333l0-.044a2.315,2.315,0,0,1,.535-1.674,3.581,3.581,0,0,1,2.8-.949,3.589,3.589,0,0,1,2.8.943A2.346,2.346,0,0,1,18,3.29l0,2.12.11.1A.657.657,0,0,1,18.333,6V7.333a.663.663,0,0,1-.474.633l-.166.051-.053.165a6.978,6.978,0,0,1-.945,1.9,4.386,4.386,0,0,1-.279.36l-.083.095v1.375a1.539,1.539,0,0,0,.855,1.384l3.184,1.592a2.327,2.327,0,0,1,1.294,2.093Z" transform="translate(-7 0)" fill="#4d4d4d"/>
</svg>
