<svg xmlns="http://www.w3.org/2000/svg" viewBox="0 0 567.18 334.53"><defs><style>.cls-1{fill:#000105;}.cls-2{fill:#d24b4b;}</style></defs><title>Ресурс 4</title><g id="Слой_2" data-name="Слой 2"><g id="Слой_2-2" data-name="Слой 2"><g id="Логотип"><path class="cls-1" d="M66.36,209.82H34.44L28.8,224.46H0l36.72-84H64.56l36.72,84H72Zm-7.8-20.4L50.4,168.3l-8.16,21.12Z"/><path class="cls-1" d="M114.12,215.94q-10.8-10.44-10.8-29.28v-46.2h28.32v45.36q0,9.26,3.3,13.44c2.2,2.81,5.38,4.2,9.54,4.2s7.34-1.39,9.54-4.2,3.3-7.27,3.3-13.44V140.46h27.84v46.2q0,18.85-10.8,29.28t-30.12,10.44Q124.92,226.38,114.12,215.94Z"/><path class="cls-1" d="M215.16,162.42h-24.6v-22h77.52v22h-24.6v62H215.16Z"/><path class="cls-1" d="M293.88,220.74a43.06,43.06,0,0,1,0-76.56,55.43,55.43,0,0,1,48.72,0,43.06,43.06,0,0,1,0,76.56,55.43,55.43,0,0,1-48.72,0Zm33.9-19.86a18.34,18.34,0,0,0,6.78-7.32,25.71,25.71,0,0,0,0-22.2,18.61,18.61,0,0,0-6.78-7.32,18.93,18.93,0,0,0-19.08,0,18.61,18.61,0,0,0-6.78,7.32,25.71,25.71,0,0,0,0,22.2,18.34,18.34,0,0,0,6.78,7.32,18.93,18.93,0,0,0,19.08,0Z"/><g id="Пистолет"><path class="cls-1" d="M391.74,175.51,387.43,158a4.06,4.06,0,0,0-3.95-3.09H367.34a8.49,8.49,0,0,0-5.2,1.8c.28.42.57.83.83,1.26A46.64,46.64,0,0,1,344.9,223.8l-4.74,20.93h7.62l15.54,35.56a2.77,2.77,0,0,0,2.45-2.11l7.52-31.26a8.85,8.85,0,0,1,8.6-6.77h2a2.64,2.64,0,0,0,.84-5.15L371,230.37a3,3,0,0,1-2-3.39l5.15-27.41a5.3,5.3,0,0,1,5.21-4.33h3.38a3.69,3.69,0,0,0,3.62-3l2.1-10.35a4,4,0,0,1,1.77-2.57A3.56,3.56,0,0,0,391.74,175.51Z"/><path class="cls-1" d="M314.85,47l-4.07-8.15a2,2,0,0,1,.89-2.7L383.15.21a2,2,0,0,1,2.68.87l4.2,8a2,2,0,0,1-.88,2.72l-71.6,36.07A2,2,0,0,1,314.85,47Z"/><path class="cls-1" d="M403.43,140.6l9.37-4.9a2,2,0,0,1,2.6.68L422,146.45a2.5,2.5,0,0,0,2.1,1.14h5.27a2.09,2.09,0,0,1,2.09,2.09V179a2.1,2.1,0,0,1-2.09,2.09H410.23a2.19,2.19,0,0,1-1.78-.91h0a24.13,24.13,0,0,1-4.14-9.48l-3.69-18.48a1.93,1.93,0,0,1,1.89-2.3h0a2,2,0,0,0,2-2v0a3.87,3.87,0,0,0-.45-1.83l-1.48-2.76A2,2,0,0,1,403.43,140.6Z"/><path class="cls-1" d="M467.4,172.19h-5.09a6,6,0,0,0-4.26,1.77l-6.36,6.35a7.2,7.2,0,0,1-5.09,2.11h-10a2.08,2.08,0,0,1-2.08-2.07V148.74a2.08,2.08,0,0,1,2.08-2.08h10a7.2,7.2,0,0,1,5.09,2.11l6.36,6.36a6,6,0,0,0,4.26,1.77h5.09a2,2,0,0,1,2,2v11.25A2,2,0,0,1,467.4,172.19Z"/><path class="cls-1" d="M363.18,149.06h0a8.6,8.6,0,0,1,2.33-5.87h0a25.78,25.78,0,0,1,10.86-6.9h0a15.76,15.76,0,0,1,8.82-.27h0a12.24,12.24,0,0,1,7.1,5.07h0a41.11,41.11,0,0,1,6.15,15.2l2.73,14.77a29.22,29.22,0,0,0,4.88,11.55l1.51,2.13a3.22,3.22,0,0,1,.59,1.87v5.46a3.19,3.19,0,0,1-.53,1.77h0a10.38,10.38,0,0,0-1.67,5.43l-.18,10.7A27.78,27.78,0,0,0,410,225.13h0a5.9,5.9,0,0,0,5,2.77h1.91A2.14,2.14,0,0,1,419,230h0a2.41,2.41,0,0,1-1,2h0a11.73,11.73,0,0,1-6.65,2.07h0a8.93,8.93,0,0,1-6.87-3.23h0a34.32,34.32,0,0,1-7.93-21.94V192.34a101.78,101.78,0,0,0-.77-12.46h0a49.89,49.89,0,0,0-1.05-5.71l-3.54-14.58a47.48,47.48,0,0,0-4.94-12.4h0a6.33,6.33,0,0,0-5.48-3.17h0a18.64,18.64,0,0,0-9.22,2.44h0a3,3,0,0,0-1.48,2.55h0a2,2,0,0,1-2,2l-2.87.05A2,2,0,0,1,363.18,149.06Z"/><path class="cls-1" d="M339.77,22l-.86-1.78a2,2,0,0,1,.9-2.63l10.49-5.12a2,2,0,0,1,2.6.86l.86,1.64"/><path class="cls-1" d="M411.37,120a29.88,29.88,0,0,1-.31-16l2.58-10A50.09,50.09,0,0,0,410,59.24l-20.22-40.9a2,2,0,0,0-2.7-.91L323.63,49a2,2,0,0,0-.9,2.7l20.61,40.7A50.15,50.15,0,0,0,369,116.13l9.58,4a29.89,29.89,0,0,1,12.64,9.84l6,8.08a2,2,0,0,0,2.5.61l13.51-6.6a2,2,0,0,0,1.05-2.39ZM408.68,92.2l-.26.72a30,30,0,0,1-37.9,18.21h0a42.79,42.79,0,0,1-21.88-20.25L331,56.13a1.71,1.71,0,0,1,.76-2.31l54.21-27a1.73,1.73,0,0,1,2.31.78l17.27,34.93A42.84,42.84,0,0,1,408.68,92.2Z"/><path class="cls-2" d="M402.58,63.16a39.14,39.14,0,0,1,2.82,27.12l-.23.65a27.41,27.41,0,0,1-34.65,16.65h0a39.12,39.12,0,0,1-20-18.51L337,63.16l21.3,9.19a47.87,47.87,0,0,0,23.46,3.7h0a26.61,26.61,0,0,0,17.93-9.44Z"/><polygon class="cls-2" points="498.24 175.16 518.1 180.45 520.02 176.17 499.76 171.83 498.24 175.16"/><polygon class="cls-2" points="527.65 177.81 525.56 182.44 548.74 188.61 550.87 182.78 527.65 177.81"/><polygon class="cls-2" points="477.12 165.17 495.92 165.83 497.99 161.11 477.12 161.66 477.12 165.17"/><polygon class="cls-2" points="533.8 145.5 509.21 151.05 507.23 155.4 531.19 151.32 533.8 145.5"/><polygon class="cls-2" points="504.72 160.93 502.39 166.05 524.23 166.81 527.13 160.34 504.72 160.93"/><polygon class="cls-2" points="559.35 159.48 535.63 160.11 532.48 167.1 556.27 167.93 559.35 159.48"/><polygon class="cls-2" points="493.85 170.57 477.12 166.99 477.12 169.54 492.5 173.63 493.85 170.57"/><polygon class="cls-2" points="499.94 156.65 501.65 152.76 477.12 158.3 477.12 160.54 499.94 156.65"/><polygon class="cls-2" points="543.18 143.38 540.3 149.76 564.38 145.65 567.18 137.96 543.18 143.38"/></g><path class="cls-2" d="M79,334.53l-.24-38.28L60.5,327H48l-18.24-29.4v37H4v-84H27.26l27.36,44.76,26.64-44.76h23.28l.24,84Z"/><path class="cls-2" d="M175.7,319.89H143.78l-5.64,14.64h-28.8l36.72-84H173.9l36.72,84H181.34Zm-7.8-20.4-8.16-21.12-8.16,21.12Z"/><path class="cls-2" d="M215.18,250.53H243.5v62h37.92v22H215.18Z"/><path class="cls-2" d="M347.66,319.89H315.74l-5.64,14.64H281.3l36.72-84h27.84l36.72,84H353.3Zm-7.8-20.4-8.16-21.12-8.16,21.12Z"/><path class="cls-2" d="M423.14,313.41h-7.68v21.12H387.14v-84h40.44a49.58,49.58,0,0,1,20.28,3.84,31,31,0,0,1,13.92,43.56A28.81,28.81,0,0,1,450,308.61l17.64,25.92H437.42ZM434.42,275q-2.88-2.58-8.64-2.58H415.46v19.68h10.32q5.76,0,8.64-2.58a10.59,10.59,0,0,0,0-14.52Z"/></g></g></g></svg>